<svg xmlns="http://www.w3.org/2000/svg" version="1.1" xmlns:xlink="http://www.w3.org/1999/xlink" xmlns:svgjs="http://svgjs.dev/svgjs" width="1500" height="1500" viewBox="0 0 1500 1500"><rect width="1500" height="1500" fill="#ebe6c8"></rect><g transform="matrix(0.6666666666666666,0,0,0.6666666666666666,249.85778443113782,249.85778443113765)"><svg viewBox="0 0 334 334" data-background-color="#ebe6c8" preserveAspectRatio="xMidYMid meet" height="1500" width="1500" xmlns="http://www.w3.org/2000/svg" xmlns:xlink="http://www.w3.org/1999/xlink"><g id="tight-bounds" transform="matrix(1,0,0,1,0.04749999999998522,0.04750000000001364)"><svg viewBox="0 0 333.90454557049503 333.90454557049503" height="333.90454557049503" width="333.90454557049503"><g><svg></svg></g><g><svg viewBox="0 0 333.90454557049503 333.90454557049503" height="333.90454557049503" width="333.90454557049503"><g><path d="M0 166.952c0-92.205 74.747-166.952 166.952-166.952 92.205 0 166.952 74.747 166.953 166.952 0 92.205-74.747 166.952-166.953 166.953-92.205 0-166.952-74.747-166.952-166.953zM166.952 327.306c88.561 0 160.354-71.793 160.354-160.354 0-88.561-71.793-160.354-160.354-160.354-88.561 0-160.354 71.793-160.354 160.354 0 88.561 71.793 160.354 160.354 160.354z" data-fill-palette-color="tertiary" fill="#f96420" stroke="transparent"></path><ellipse rx="160.27418187383762" ry="160.27418187383762" cx="166.95227278524752" cy="166.95227278524752" fill="#f96420" stroke="transparent" stroke-width="0" fill-opacity="1" data-fill-palette-color="tertiary"></ellipse></g><g transform="matrix(1,0,0,1,69.48039981518609,71.17305217166896)"><svg viewBox="0 0 194.94374594012285 191.55844122715712" height="191.55844122715712" width="194.94374594012285"><g><svg viewBox="0 0 194.94374594012285 191.55844122715712" height="191.55844122715712" width="194.94374594012285"><g><svg viewBox="0 0 213.1584412271571 209.45682837358873" height="191.55844122715712" width="194.94374594012285"><g transform="matrix(1,0,0,1,0,129.4527229260812)"><svg viewBox="0 0 213.1584412271571 80.00410544750753" height="80.00410544750753" width="213.1584412271571"><g id="textblocktransform"><svg viewBox="0 0 213.1584412271571 80.00410544750753" height="80.00410544750753" width="213.1584412271571" id="textblock"><g><svg viewBox="0 0 213.1584412271571 80.00410544750753" height="80.00410544750753" width="213.1584412271571"><g transform="matrix(1,0,0,1,0,0)"><svg width="213.1584412271571" viewBox="0.65 -33.7 114.69 43.050000000000004" height="80.00410544750753" data-palette-color="#ebe6c8"><path d="M22.55-33.7L31.5-33.7 19.85-12.4 19.85 0 12.15 0 12.15-12.35 0.65-33.7 9.65-33.7 11.7-28.8Q13.3-25 14.35-22.3 15.4-19.6 15.7-18.8L15.7-18.8 15.95-18Q16.45-20.25 20.35-28.8L20.35-28.8 22.55-33.7ZM41-15L49.8-15 49.8-15.6Q49.45-20.05 45.9-20.05L45.9-20.05Q44.15-20.05 42.8-18.78 41.45-17.5 41-15L41-15ZM55.05-7.55L55.05-7.55 55.05-1.45Q52.45 0.25 47.1 0.25L47.1 0.25Q40.85 0.25 37.37-3.38 33.9-7 33.9-12.7L33.9-12.7Q33.9-18.75 37.27-22.18 40.65-25.6 45.6-25.6L45.6-25.6Q50.7-25.6 53.65-22.63 56.6-19.65 56.6-13.75L56.6-13.75Q56.6-12.6 56.2-9.8L56.2-9.8 41.3-9.8Q42.05-7.7 43.9-6.55 45.75-5.4 48.35-5.4L48.35-5.4Q52.2-5.4 55.05-7.55ZM74.8-5.8L74.8-5.8Q77.2-5.8 78.7-7.63 80.2-9.45 80.2-12.6L80.2-12.6Q80.2-16.05 78.67-17.82 77.15-19.6 74.8-19.6L74.8-19.6Q72.5-19.6 70.8-17.85 69.09-16.1 69.09-12.95L69.09-12.95Q69.09-9.7 70.7-7.75 72.3-5.8 74.8-5.8ZM61.8-25.35L69.09-25.35 69.09-21.45Q71.75-25.65 76.75-25.65L76.75-25.65Q81.65-25.65 84.62-22.18 87.59-18.7 87.59-12.75L87.59-12.75Q87.59-7.1 84.72-3.4 81.84 0.3 76.75 0.3L76.75 0.3Q71.59 0.3 69.09-3.75L69.09-3.75 69.09 9.35 61.8 9.35 61.8-25.35ZM108.04-11.95L108.04-25.35 115.34-25.35 115.34 0 108.04 0 108.04-4.05Q106.04 0.2 100.34 0.2L100.34 0.2Q96.44 0.2 94.27-1.98 92.09-4.15 92.09-8.4L92.09-8.4 92.09-25.35 99.39-25.35 99.39-10.05Q99.39-5.6 103.29-5.6L103.29-5.6Q108.04-5.6 108.04-11.95L108.04-11.95Z" opacity="1" transform="matrix(1,0,0,1,0,0)" fill="#ebe6c8" class="wordmark-text-0" data-fill-palette-color="quaternary" id="text-0"></path></svg></g></svg></g></svg></g></svg></g><g transform="matrix(1,0,0,1,51.29638374935085,0)"><svg viewBox="0 0 110.56567372845541 110.56567372845541" height="110.56567372845541" width="110.56567372845541"><g><svg xmlns="http://www.w3.org/2000/svg" xmlns:xlink="http://www.w3.org/1999/xlink" version="1.1" x="0" y="0" viewBox="1 1 62 62" style="enable-background:new 0 0 64 64;" xml:space="preserve" height="110.56567372845541" width="110.56567372845541" class="icon-icon-0" data-fill-palette-color="quaternary" id="icon-0"><g fill="#ebe6c8" data-fill-palette-color="quaternary"><path d="M59 9V5h-4V1H1v54h4v4h4v4h54V9H59zM61 17H11v-6h50V17zM3 53V3h50v2H5v48H3zM7 57V7h50v2H9v48H7zM11 61V19h50v42H11z" fill="#ebe6c8" data-fill-palette-color="quaternary"></path><rect x="13" y="13" width="2" height="2" fill="#ebe6c8" data-fill-palette-color="quaternary"></rect><rect x="17" y="13" width="2" height="2" fill="#ebe6c8" data-fill-palette-color="quaternary"></rect><rect x="21" y="13" width="2" height="2" fill="#ebe6c8" data-fill-palette-color="quaternary"></rect><path d="M13 41h4v4h3.813c0.25 0.762 0.554 1.499 0.91 2.205l-2.694 2.694 7.071 7.071 2.694-2.694c0.706 0.355 1.444 0.66 2.206 0.91V59h10v-3.813c0.762-0.25 1.5-0.555 2.206-0.91l2.694 2.694 7.071-7.071-2.694-2.694c0.356-0.706 0.66-1.443 0.91-2.205H55v-4h4v-2H13V41zM53 43h-3.317l-0.203 0.733c-0.308 1.116-0.747 2.179-1.305 3.16l-0.376 0.662 2.343 2.344-4.243 4.243-2.343-2.344-0.662 0.377c-0.981 0.557-2.045 0.996-3.161 1.305L39 53.684V57h-6v-3.316l-0.733-0.203c-1.116-0.309-2.18-0.748-3.161-1.305l-0.662-0.377-2.343 2.344-4.243-4.243 2.343-2.344-0.376-0.662c-0.558-0.981-0.997-2.044-1.305-3.16L22.317 43H19v-2h8.059c0.5 4.493 4.317 8 8.941 8s8.442-3.507 8.941-8H53V43zM29.08 41h13.84c-0.488 3.386-3.401 6-6.92 6S29.568 44.386 29.08 41z" fill="#ebe6c8" data-fill-palette-color="quaternary"></path><polygon points="28.707,35.293 22.414,29 28.707,22.707 27.293,21.293 19.586,29 27.293,36.707  " fill="#ebe6c8" data-fill-palette-color="quaternary"></polygon><polygon points="44.707,36.707 52.414,29 44.707,21.293 43.293,22.707 49.586,29 43.293,35.293  " fill="#ebe6c8" data-fill-palette-color="quaternary"></polygon><rect x="27.398" y="28" transform="matrix(0.581 -0.8139 0.8139 0.581 -8.5193 41.4511)" width="17.205" height="2" fill="#ebe6c8" data-fill-palette-color="quaternary"></rect></g></svg></g></svg></g><g></g></svg></g></svg></g></svg></g></svg></g><defs></defs></svg><rect width="333.90454557049503" height="333.90454557049503" fill="none" stroke="none" visibility="hidden"></rect></g></svg></g></svg>